<svg width="98" height="150" viewBox="0 0 98 150" fill="none" xmlns="http://www.w3.org/2000/svg">
<path d="M84.3863 12.9163C48.1635 32.2256 39.1794 68.0257 41.3321 91.7056C43.4848 71.9006 49.5124 68.0257 49.5124 68.0257C49.5124 68.0257 67.5952 62.4287 81.3725 49.0819C95.1499 35.735 97.7331 0 97.7331 0C73.9929 4.12828 60.2759 5.16651 49.5124 17.2217C38.7488 29.2769 39.0906 37.7514 41.3321 55.1095C52.8064 30.922 61.5841 20.7465 84.3863 12.9163Z" fill="#8CC162"/>
<path d="M8.52771 48.5393C30.6971 57.4738 38.1152 77.6408 38.3344 91.4814C35.862 80.1504 32.132 78.2806 32.132 78.2806C32.132 78.2806 21.3151 76.1604 12.5114 69.2875C3.70774 62.4146 0 41.889 0 41.889C14.0019 42.8087 22.0087 42.5604 28.9873 48.8722C35.9659 55.184 36.2926 60.1107 36.0692 70.2974C27.928 57.0067 22.2156 51.66 8.52771 48.5393Z" fill="#8CC162"/>
<path d="M4.85751 106.282H73.2513L69.8401 150H8.26867L4.85751 106.282Z" fill="#BA9D51"/>
<path d="M3.30311 91.7098H74.8057V103.756H3.30311V91.7098Z" fill="#BA9D51"/>
</svg>
