<svg width="273" height="192" viewBox="0 0 273 192" fill="none" xmlns="http://www.w3.org/2000/svg">
<g clip-path="url(#clip0_162_405)">
<path d="M164.341 192H0V1.17792L164.341 52.4172V192Z" fill="#F2F2F2"/>
<path d="M144.424 124.564H15.2982V184.933H144.424V124.564Z" fill="#3F3D56"/>
<path d="M116.459 113.271C126.376 113.271 134.415 105.204 134.415 95.2529C134.415 85.3019 126.376 77.235 116.459 77.235C106.542 77.235 98.5029 85.3019 98.5029 95.2529C98.5029 105.204 106.542 113.271 116.459 113.271Z" fill="#A0D468"/>
<path d="M116.296 127.837L116.444 95.1537" stroke="#3F3D56" stroke-width="2" stroke-miterlimit="10"/>
<path d="M116.443 99.7757C118.987 99.7757 121.05 97.7063 121.05 95.1537C121.05 92.6011 118.987 90.5318 116.443 90.5318C113.9 90.5318 111.837 92.6011 111.837 95.1537C111.837 97.7063 113.9 99.7757 116.443 99.7757Z" fill="#3F3D56"/>
<path d="M116.353 115.297C116.353 115.297 115.759 101.093 102.262 102.683L116.353 115.297Z" fill="#3F3D56"/>
<path d="M41.2389 77.0963C51.1558 77.0963 59.1949 69.0295 59.1949 59.0785C59.1949 49.1274 51.1558 41.0606 41.2389 41.0606C31.3221 41.0606 23.283 49.1274 23.283 59.0785C23.283 69.0295 31.3221 77.0963 41.2389 77.0963Z" fill="#A0D468"/>
<path d="M40.2223 125.596L41.2557 59.0585" stroke="#3F3D56" stroke-width="2" stroke-miterlimit="10"/>
<path d="M41.2557 63.6805C43.7996 63.6805 45.8618 61.6112 45.8618 59.0585C45.8618 56.5059 43.7996 54.4366 41.2557 54.4366C38.7119 54.4366 36.6497 56.5059 36.6497 59.0585C36.6497 61.6112 38.7119 63.6805 41.2557 63.6805Z" fill="#3F3D56"/>
<path d="M40.9634 77.8794C40.9634 77.8794 40.526 63.6696 27.0128 65.1092L40.9634 77.8794Z" fill="#3F3D56"/>
<path d="M40.242 124.326C40.242 124.326 43.6268 97.0662 26.5411 95.4783" stroke="#3F3D56" stroke-width="2" stroke-miterlimit="10"/>
<path d="M26.5411 100.1C29.085 100.1 31.1472 98.0309 31.1472 95.4783C31.1472 92.9257 29.085 90.8563 26.5411 90.8563C23.9973 90.8563 21.9351 92.9257 21.9351 95.4783C21.9351 98.0309 23.9973 100.1 26.5411 100.1Z" fill="#3F3D56"/>
<path d="M79.8532 37.0958C89.77 37.0958 97.8092 29.0289 97.8092 19.0779C97.8092 9.12687 89.77 1.05998 79.8532 1.05998C69.9364 1.05998 61.8972 9.12687 61.8972 19.0779C61.8972 29.0289 69.9364 37.0958 79.8532 37.0958Z" fill="#A0D468"/>
<path d="M79.8644 128.162V19.1441" stroke="#3F3D56" stroke-width="2" stroke-miterlimit="10"/>
<path d="M79.8645 23.7143C82.4083 23.7143 84.4705 21.645 84.4705 19.0924C84.4705 16.5398 82.4083 14.4705 79.8645 14.4705C77.3206 14.4705 75.2584 16.5398 75.2584 19.0924C75.2584 21.645 77.3206 23.7143 79.8645 23.7143Z" fill="#3F3D56"/>
<path d="M65.7173 102.589C68.2611 102.589 70.3233 100.52 70.3233 97.9673C70.3233 95.4146 68.2611 93.3453 65.7173 93.3453C63.1734 93.3453 61.1112 95.4146 61.1112 97.9673C61.1112 100.52 63.1734 102.589 65.7173 102.589Z" fill="#3F3D56"/>
<path d="M79.8645 42.7015C79.8645 42.7015 79.2065 28.5004 65.7173 30.1511L79.8645 42.7015Z" fill="#3F3D56"/>
<path d="M79.8645 82.9602C79.8645 82.9602 79.2065 68.7591 65.7173 70.4098L79.8645 82.9602Z" fill="#3F3D56"/>
<path d="M79.8645 126.891C79.8645 126.891 82.8255 99.2878 65.7173 97.9672" stroke="#3F3D56" stroke-width="2" stroke-miterlimit="10"/>
<path d="M94.2942 59.2336C96.838 59.2336 98.9002 57.1643 98.9002 54.6117C98.9002 52.0591 96.838 49.9898 94.2942 49.9898C91.7503 49.9898 89.6881 52.0591 89.6881 54.6117C89.6881 57.1643 91.7503 59.2336 94.2942 59.2336Z" fill="#3F3D56"/>
<path d="M80.147 82.0633C80.147 82.0633 77.1859 55.9323 94.2942 54.6117" stroke="#3F3D56" stroke-width="2" stroke-miterlimit="10"/>
<path d="M118.267 44.1718C116.99 44.1718 115.742 43.7918 114.68 43.0799C113.618 42.3681 112.791 41.3563 112.302 40.1725C111.814 38.9887 111.686 37.6861 111.935 36.4294C112.184 35.1726 112.799 34.0183 113.702 33.1122C114.605 32.2062 115.755 31.5892 117.008 31.3392C118.26 31.0892 119.558 31.2175 120.738 31.7079C121.917 32.1982 122.926 33.0286 123.635 34.094C124.345 35.1594 124.723 36.4119 124.723 37.6933C124.721 39.4109 124.041 41.0576 122.83 42.2721C121.62 43.4867 119.979 44.1698 118.267 44.1718ZM118.267 31.8037C117.106 31.8037 115.971 32.1491 115.006 32.7963C114.041 33.4434 113.289 34.3632 112.845 35.4394C112.4 36.5156 112.284 37.6998 112.511 38.8423C112.737 39.9847 113.296 41.0341 114.117 41.8578C114.938 42.6815 115.983 43.2424 117.122 43.4697C118.261 43.6969 119.441 43.5803 120.513 43.1345C121.586 42.6887 122.502 41.9339 123.147 40.9653C123.792 39.9968 124.136 38.8581 124.136 37.6933C124.135 36.1318 123.516 34.6348 122.415 33.5307C121.315 32.4265 119.823 31.8055 118.267 31.8037Z" fill="#3F3D56"/>
<path d="M16.7276 12.9571C15.4507 12.9571 14.2025 12.5771 13.1407 11.8652C12.079 11.1534 11.2515 10.1416 10.7628 8.95776C10.2742 7.77396 10.1463 6.47134 10.3954 5.21463C10.6445 3.95792 11.2594 2.80356 12.1624 1.89752C13.0653 0.991481 14.2157 0.374461 15.4681 0.124486C16.7205 -0.12549 18.0186 0.00280787 19.1983 0.493152C20.3781 0.983497 21.3864 1.81386 22.0958 2.87925C22.8053 3.94464 23.1839 5.1972 23.1839 6.47853C23.182 8.19615 22.5011 9.84286 21.2908 11.0574C20.0804 12.2719 18.4394 12.9551 16.7276 12.9571ZM16.7276 0.58896C15.5668 0.58896 14.432 0.934377 13.4668 1.58153C12.5016 2.22869 11.7493 3.14851 11.3051 4.22469C10.8608 5.30087 10.7446 6.48507 10.9711 7.62753C11.1975 8.76999 11.7565 9.81942 12.5774 10.6431C13.3982 11.4668 14.444 12.0277 15.5826 12.2549C16.7211 12.4822 17.9012 12.3656 18.9737 11.9198C20.0462 11.474 20.9629 10.7191 21.6078 9.7506C22.2527 8.78207 22.597 7.64338 22.597 6.47853C22.5952 4.91707 21.9762 3.42007 20.8759 2.31595C19.7756 1.21183 18.2837 0.590746 16.7276 0.58896Z" fill="#3F3D56"/>
<path d="M164.341 108.957C163.064 108.957 161.816 108.577 160.754 107.865C159.693 107.153 158.865 106.142 158.377 104.958C157.888 103.774 157.76 102.471 158.009 101.215C158.258 99.9579 158.873 98.8036 159.776 97.8975C160.679 96.9915 161.829 96.3745 163.082 96.1245C164.334 95.8745 165.632 96.0028 166.812 96.4932C167.992 96.9835 169 97.8139 169.71 98.8793C170.419 99.9446 170.798 101.197 170.798 102.479C170.796 104.196 170.115 105.843 168.905 107.057C167.694 108.272 166.053 108.955 164.341 108.957ZM164.341 96.589C163.181 96.589 162.046 96.9344 161.081 97.5815C160.115 98.2287 159.363 99.1485 158.919 100.225C158.475 101.301 158.358 102.485 158.585 103.628C158.811 104.77 159.37 105.819 160.191 106.643C161.012 107.467 162.058 108.028 163.196 108.255C164.335 108.482 165.515 108.366 166.588 107.92C167.66 107.474 168.577 106.719 169.222 105.751C169.867 104.782 170.211 103.643 170.211 102.479C170.209 100.917 169.59 99.4201 168.49 98.3159C167.389 97.2118 165.898 96.5907 164.341 96.589Z" fill="#3F3D56"/>
<path d="M137.049 58.3067C139.156 58.3067 140.864 56.5928 140.864 54.4785C140.864 52.3643 139.156 50.6503 137.049 50.6503C134.942 50.6503 133.234 52.3643 133.234 54.4785C133.234 56.5928 134.942 58.3067 137.049 58.3067Z" fill="#3F3D56"/>
<path d="M166.983 128.098C169.09 128.098 170.798 126.384 170.798 124.27C170.798 122.156 169.09 120.442 166.983 120.442C164.876 120.442 163.167 122.156 163.167 124.27C163.167 126.384 164.876 128.098 166.983 128.098Z" fill="#3F3D56"/>
<path d="M164.341 192V124.564H137.049C137.049 156.116 111.559 181.693 80.1164 181.693C48.6734 181.693 23.1839 156.116 23.1839 124.564H0V192H164.341Z" fill="#3F3D56"/>
<path d="M80.1164 181.693C111.559 181.693 137.049 156.116 137.049 124.564H23.1838C23.1838 156.116 48.6734 181.693 80.1164 181.693Z" fill="#A0D468"/>
<path d="M241.753 148.581C269.811 134.34 281.051 99.971 266.858 71.8166L165.252 123.389C179.445 151.544 213.695 162.822 241.753 148.581Z" fill="#3F3D56"/>
<path d="M243.811 42.2586C244 42.1297 244.183 41.9921 244.361 41.8483C243.99 42.9607 243.394 43.9836 242.608 44.8521C242.424 45.0551 242.228 45.2452 242.027 45.429C242.023 45.3824 242.018 45.3358 242.016 45.2893C241.992 44.8388 242.025 44.3647 242.031 43.9008C242.731 43.4824 243.337 42.9233 243.811 42.2586Z" fill="url(#paint0_linear_162_405)"/>
<path d="M246.564 25.829C246.991 25.1066 247.238 24.2912 247.282 23.4525C247.326 22.6138 247.168 21.7768 246.819 21.0132C246.471 20.2495 245.943 19.582 245.281 19.0678C244.619 18.5536 243.843 18.2079 243.019 18.0605C242.195 17.913 241.348 17.9681 240.55 18.2211C239.752 18.4741 239.027 18.9174 238.436 19.5131C237.846 20.1088 237.409 20.839 237.162 21.6414C236.914 22.4438 236.865 23.2944 237.017 24.1203C235.536 24.828 234.296 25.9593 233.455 27.372C232.613 28.7846 232.206 30.4155 232.286 32.0595C231.578 33.1492 231.134 34.3896 230.989 35.682C230.843 36.9743 231 38.2829 231.448 39.5035C231.895 40.7242 232.62 41.8232 233.565 42.7131C234.511 43.603 235.65 44.2591 236.892 44.6294C238.135 44.9996 239.446 45.0737 240.722 44.8457C241.998 44.6177 243.204 44.0939 244.242 43.3161C245.281 42.5382 246.125 41.5278 246.706 40.3652C247.287 39.2026 247.589 37.92 247.589 36.6194C247.589 36.4862 247.585 36.3539 247.579 36.2222C248.612 34.6319 249.074 32.736 248.889 30.8469C248.705 28.9578 247.885 27.188 246.564 25.829Z" fill="#2F2E41"/>
<g opacity="0.1">
<path d="M236.948 22.801C236.971 22.7896 236.994 22.7766 237.017 22.7654C237 22.6754 236.989 22.5839 236.977 22.4926C236.974 22.5117 236.971 22.5304 236.969 22.5495C236.958 22.6338 236.954 22.7173 236.948 22.801Z" fill="black"/>
<path d="M248.869 31.3073C248.718 32.5777 248.276 33.796 247.579 34.8673C247.585 34.999 247.589 35.1313 247.589 35.2645C247.589 37.4221 246.758 39.4961 245.268 41.0524C243.779 42.6086 241.748 43.5263 239.599 43.6133C237.451 43.7003 235.352 42.9499 233.742 41.5192C232.133 40.0886 231.137 38.0885 230.964 35.9379C230.946 36.1629 230.935 36.3898 230.935 36.6194C230.935 38.8355 231.812 40.9608 233.374 42.5277C234.936 44.0947 237.054 44.975 239.262 44.975C241.471 44.975 243.589 44.0947 245.15 42.5277C246.712 40.9608 247.589 38.8355 247.589 36.6194C247.589 36.4862 247.585 36.3539 247.579 36.2222C248.589 34.6697 249.053 32.8235 248.899 30.976C248.891 31.0863 248.883 31.1965 248.869 31.3073Z" fill="black"/>
<path d="M247.248 22.4869C247.158 23.1892 246.925 23.8655 246.564 24.474C246.71 24.624 246.848 24.7813 246.981 24.9417C247.265 24.1567 247.357 23.3147 247.248 22.4869Z" fill="black"/>
</g>
<path d="M213.009 115.475C213.049 115.951 213.177 116.414 213.387 116.842C213.495 117.055 213.65 117.24 213.842 117.381C214.034 117.522 214.257 117.615 214.491 117.653C214.923 117.656 215.346 117.533 215.709 117.299C216.451 116.91 217.22 116.459 217.607 115.715C217.982 114.995 217.928 114.135 217.864 113.325L217.367 106.953C216.167 106.92 214.962 106.921 213.764 106.986C212.577 107.051 212.369 107.332 212.534 108.495C212.863 110.809 212.703 113.159 213.009 115.475Z" fill="#FBBEBE"/>
<path d="M248.193 119.781L251.047 124.408C251.17 124.677 251.392 124.887 251.668 124.993C251.872 125.023 252.081 124.987 252.264 124.889C253.216 124.472 253.944 123.679 254.643 122.909C255.117 122.386 255.607 121.834 255.785 121.15C255.877 120.779 255.873 120.39 255.774 120.021C255.674 119.652 255.482 119.315 255.215 119.041C254.882 118.75 254.522 118.492 254.139 118.27C251.884 116.743 250.866 113.843 248.639 112.274C248.51 112.167 248.354 112.099 248.188 112.079C248.022 112.089 247.862 112.142 247.724 112.235C246.709 112.793 245.695 113.351 244.68 113.909C243.362 114.633 243.78 114.718 244.781 115.497C246.255 116.646 247.176 118.251 248.193 119.781Z" fill="#FBBEBE"/>
<path d="M219.203 111.79C218.785 111.658 218.317 111.539 217.923 111.732C217.738 111.845 217.582 111.999 217.467 112.182C217.351 112.365 217.279 112.572 217.255 112.787C217.176 113.212 217.186 113.654 217.068 114.07C216.87 114.772 216.337 115.32 215.823 115.836C215.616 116.084 215.346 116.273 215.042 116.382C214.63 116.488 214.193 116.294 213.774 116.368C213.53 116.43 213.308 116.559 213.132 116.739C212.956 116.919 212.832 117.145 212.774 117.39C212.665 117.883 212.649 118.392 212.725 118.891L213.049 122.442C213.106 122.875 213.111 123.313 213.063 123.747C212.943 124.527 212.491 125.212 212.24 125.961C211.989 126.71 212.003 127.665 212.631 128.142C212.85 128.288 213.103 128.377 213.365 128.4C213.628 128.424 213.892 128.38 214.133 128.274C214.614 128.057 215.039 127.733 215.377 127.326C217.299 125.223 218.158 122.375 219.652 119.947C220.034 119.386 220.375 118.798 220.674 118.188C220.879 117.716 221.009 117.216 221.175 116.729C221.405 116.079 221.68 115.445 221.999 114.834C222.176 114.484 222.857 113.642 222.714 113.252C222.47 112.586 219.85 111.995 219.203 111.79Z" fill="#2F2E41"/>
<path d="M253.859 121.585C253.427 122.399 252.705 123.02 251.837 123.324C251.585 123.392 251.351 123.514 251.15 123.681C251.018 123.843 250.936 124.04 250.915 124.248C250.893 124.456 250.933 124.665 251.03 124.851C251.228 125.217 251.487 125.548 251.794 125.83C253.519 127.662 254.661 129.969 255.071 132.456C255.173 133.084 255.24 133.751 255.614 134.264C256.345 135.266 257.901 135.2 259 134.629C259.336 134.475 259.627 134.238 259.847 133.94C260.03 133.617 260.147 133.261 260.19 132.892C260.388 131.978 260.498 131.047 260.517 130.111C260.495 128.346 259.835 126.658 259.519 124.921C259.071 122.456 259.295 119.8 258.151 117.573C258.037 117.311 257.857 117.084 257.629 116.914C257.343 116.763 257.022 116.691 256.699 116.704C255.665 116.662 254.631 116.653 253.596 116.677C253.306 116.684 252.967 116.72 252.817 116.969C252.663 117.224 252.797 117.549 252.932 117.814C253.573 119.071 254.611 120.077 253.859 121.585Z" fill="#2F2E41"/>
<path d="M229.307 77.3993C229.017 77.6387 228.821 77.9725 228.753 78.3422C228.684 78.712 228.748 79.0942 228.932 79.4218C229.161 79.8028 229.572 80.1575 229.482 80.5933C229.389 81.0457 228.834 81.1993 228.38 81.2719C224.372 81.9115 220.473 83.0887 216.587 84.2626L212.511 85.4939C211.336 85.849 210.141 86.2136 209.125 86.9053C208.194 87.5423 207.456 88.4262 206.995 89.4586C206.529 90.507 206.369 91.6616 206.203 92.7973C205.591 96.9765 204.809 101.197 202.951 104.987L212.836 108.239C213.794 108.593 214.787 108.843 215.797 108.987C216.761 109.068 217.731 109.021 218.682 108.847C218.621 106.632 218.583 104.351 218.522 102.136C218.516 101.437 218.47 100.738 218.386 100.043C218.238 98.982 217.91 97.9494 217.808 96.8826C218.264 96.5052 218.926 96.5991 219.517 96.6163C220.866 96.6557 222.182 96.1854 223.381 95.5654C224.581 94.9454 225.696 94.1727 226.888 93.5399C228.875 92.4855 231.135 91.7763 232.652 90.1118C231.879 93.0665 230.054 95.6412 229.701 98.6753C229.344 101.741 230.588 104.741 231.805 107.575L235.693 116.631C236.123 117.631 236.695 118.755 237.753 118.993C238.413 119.142 239.093 118.894 239.706 118.606C243.285 116.924 246.148 113.762 249.97 112.75C249.685 110.851 248.19 109.282 247.343 107.559C246.629 106.107 246.395 104.472 245.919 102.924C245.443 101.376 244.626 99.808 243.188 99.0724C242.505 98.7231 241.585 98.4192 241.521 97.6528C241.517 97.4067 241.569 97.1628 241.673 96.9401C242.185 95.647 242.98 94.4859 243.999 93.5423C244.131 93.4409 244.236 93.3092 244.305 93.1584C244.343 93.009 244.351 92.8537 244.328 92.7013C244.256 91.4683 244.914 90.3148 245.648 89.3233C246.382 88.3318 247.23 87.3881 247.644 86.2248C248.355 84.2247 247.649 82.0266 246.946 80.0236C246.661 79.214 246.362 78.3794 245.778 77.7523C244.862 76.7689 243.436 76.4854 242.103 76.3388C237.791 75.8645 232.732 74.7305 229.307 77.3993Z" fill="#2F2E41"/>
<g opacity="0.1">
<path d="M228.858 77.9974C229.003 77.9678 229.137 77.8997 229.247 77.8002C229.357 77.7007 229.438 77.5735 229.482 77.4317C229.493 77.3762 229.497 77.3194 229.492 77.263C229.43 77.3081 229.368 77.3518 229.307 77.3993C229.108 77.5569 228.954 77.7629 228.858 77.9974Z" fill="black"/>
</g>
<path d="M236.119 46.0521C236.171 47.0401 235.873 48.0976 235.116 48.7315C234.873 48.9349 234.592 49.089 234.358 49.303C234.15 49.517 233.992 49.7738 233.893 50.0555C233.794 50.3373 233.758 50.6373 233.786 50.9345C233.815 51.2318 233.908 51.5193 234.058 51.777C234.209 52.0347 234.413 52.2564 234.658 52.4267C235.444 52.9079 236.443 52.7781 237.35 52.6202C238.56 52.4505 239.746 52.1399 240.884 51.6948C242.029 51.2436 243.004 50.4427 243.67 49.4054C242.682 48.8528 242.144 47.6919 242.084 46.5587C242.024 45.4239 242.334 44.1362 241.618 43.2559C240.928 42.4081 239.63 42.4143 238.579 42.7053C238.051 42.8514 237.54 43.0534 237.012 43.1963C236.744 43.2688 235.86 43.2707 235.685 43.4685C235.367 43.8283 236.089 45.4804 236.119 46.0521Z" fill="#FBBEBE"/>
<path opacity="0.1" d="M236.119 46.0521C236.171 47.0401 235.873 48.0976 235.116 48.7315C234.873 48.9349 234.592 49.089 234.358 49.303C234.15 49.517 233.992 49.7738 233.893 50.0555C233.794 50.3373 233.758 50.6373 233.786 50.9345C233.815 51.2318 233.908 51.5193 234.058 51.777C234.209 52.0347 234.413 52.2564 234.658 52.4267C235.444 52.9079 236.443 52.7781 237.35 52.6202C238.56 52.4505 239.746 52.1399 240.884 51.6948C242.029 51.2436 243.004 50.4427 243.67 49.4054C242.682 48.8528 242.144 47.6919 242.084 46.5587C242.024 45.4239 242.334 44.1362 241.618 43.2559C240.928 42.4081 239.63 42.4143 238.579 42.7053C238.051 42.8514 237.54 43.0534 237.012 43.1963C236.744 43.2688 235.86 43.2707 235.685 43.4685C235.367 43.8283 236.089 45.4804 236.119 46.0521Z" fill="black"/>
<path d="M239.15 45.9913C242.381 45.9913 245.001 43.3625 245.001 40.1198C245.001 36.877 242.381 34.2482 239.15 34.2482C235.918 34.2482 233.298 36.877 233.298 40.1198C233.298 43.3625 235.918 45.9913 239.15 45.9913Z" fill="#FBBEBE"/>
<path d="M220.673 85.167C220.568 85.6309 220.381 86.0723 220.122 86.4706C219.44 87.687 219.193 89.1011 219.423 90.4776C219.547 91.1602 219.836 91.8018 220.265 92.3458C220.694 92.8899 221.249 93.3197 221.883 93.5974C222.431 93.8138 223.109 93.8709 223.561 93.4921C222.779 92.4716 222.738 91.0785 222.785 89.7923C222.771 89.5522 222.828 89.3133 222.949 89.1055C222.981 89.056 223.023 89.0137 223.072 88.9811C223.121 88.9485 223.176 88.9264 223.234 88.916C223.292 88.9057 223.351 88.9074 223.408 88.9211C223.466 88.9347 223.519 88.96 223.567 88.9954C223.547 89.8052 223.703 90.6098 224.024 91.3531C224.147 91.639 224.359 91.9548 224.669 91.9466C225.115 91.935 225.235 91.3294 225.218 90.8825C225.15 89.0615 225.061 87.1648 224.186 85.5679C223.865 84.9833 223.439 84.4344 223.317 83.7786C223.311 83.5512 223.233 83.3317 223.093 83.1524C222.997 83.0764 222.884 83.0237 222.764 82.9985C222.26 82.8556 221.068 82.4109 220.652 82.8844C220.207 83.3921 220.753 84.56 220.673 85.167Z" fill="#FBBEBE"/>
<path d="M229.363 53.9705C228.692 53.8948 228.162 54.5111 227.794 55.0794C226.424 57.1988 225.439 59.5443 224.882 62.0078C224.598 63.2652 224.42 64.5711 223.826 65.7138C223.682 65.951 223.567 66.204 223.482 66.4679C223.431 66.8708 223.413 67.2772 223.428 67.6831C223.366 68.4167 222.934 69.0684 222.789 69.7902C222.703 70.2204 222.72 70.6657 222.643 71.0977C222.509 71.8543 222.094 72.5273 221.829 73.2483C221.362 74.5179 221.367 75.9119 221.023 77.2205C220.981 77.4362 220.888 77.6386 220.752 77.8108C220.519 78.0674 220.147 78.13 219.843 78.2945C219.603 78.4417 219.398 78.6385 219.24 78.872C219.082 79.1054 218.976 79.3699 218.929 79.6478C218.838 80.2036 218.828 80.7696 218.898 81.3284L219.167 84.8015C219.444 84.6849 219.625 84.37 219.856 84.1772C220.279 83.8242 220.901 83.9034 221.442 84.0019L222.231 84.1453C223.037 84.292 223.915 84.479 224.432 85.117C224.843 84.4718 224.608 83.5208 225.24 83.0915C225.446 82.9519 225.7 82.9046 225.917 82.7832C226.121 82.6507 226.29 82.4707 226.41 82.2586C226.53 82.0464 226.597 81.8083 226.606 81.5646C226.618 81.0775 226.551 80.5916 226.407 80.1261C227.421 79.6969 228.049 78.6677 228.445 77.6384C228.881 76.3927 229.197 75.1077 229.387 73.8013C230.302 68.64 231.139 63.4416 231.222 58.1999C231.28 57.3231 231.183 56.4429 230.937 55.5997C230.649 54.7721 230.231 54.0685 229.363 53.9705Z" fill="#D0CDE1"/>
<path d="M244.114 48.3495C243.149 49.366 241.914 50.0854 240.556 50.4235C239.204 50.7571 237.824 50.961 236.435 51.0327C236.007 51.1045 235.569 51.0665 235.16 50.9223C234.767 50.7436 234.469 50.2768 234.628 49.8748C234.706 49.7504 234.758 49.612 234.782 49.4674C234.775 49.1098 234.251 49.0801 233.91 49.1858C231.658 49.8849 229.498 51.2693 228.458 53.3928C227.871 54.5923 227.677 55.9413 227.491 57.2646C227.001 60.7452 226.513 64.3015 227.169 67.7544C227.519 69.5956 228.193 71.3903 228.235 73.2642C228.258 74.3143 228.082 75.3603 228.09 76.4107C228.059 76.7785 228.157 77.1458 228.367 77.4487C228.529 77.6376 228.774 77.7567 228.887 77.9786C229.076 78.3497 228.823 78.8592 229.072 79.1929C229.378 79.6039 230.018 79.3088 230.44 79.019C232.563 77.5721 235.128 76.9244 237.681 77.1899C240.747 77.5201 243.795 79.1603 246.769 78.3406C246.616 78.1165 246.484 77.8787 246.374 77.6302C244.891 72.74 244.992 67.2738 247.211 62.6729C247.969 61.101 248.976 59.6031 249.266 57.8813C249.383 57.0759 249.393 56.2584 249.294 55.4506C249.137 53.8875 248.766 52.3115 247.92 50.9901C247.073 49.6686 245.672 48.5042 244.114 48.3495Z" fill="#D0CDE1"/>
<path d="M229.958 86.6781C229.72 87.3166 229.606 87.995 229.621 88.6766C229.599 89.3286 229.632 89.9814 229.718 90.628C229.768 91.1806 229.964 91.7099 230.287 92.1607C230.452 92.3825 230.678 92.5503 230.938 92.643C231.198 92.7358 231.48 92.7492 231.747 92.6818C231.958 92.594 232.146 92.4602 232.299 92.29C232.451 92.1199 232.564 91.9178 232.629 91.6985C232.755 91.2599 232.847 90.8123 232.905 90.3596C233.162 89.0268 233.859 87.7759 233.871 86.4186C233.881 86.2576 233.856 86.0965 233.797 85.9463C233.543 85.3884 232.3 84.7623 231.693 84.8563C230.933 84.9738 230.234 86.0338 229.958 86.6781Z" fill="#FBBEBE"/>
<path opacity="0.1" d="M246.844 53.3065C246.728 54.4739 247.854 55.3538 248.299 56.4387C248.481 56.9452 248.584 57.4767 248.606 58.0146C248.918 61.7474 248.676 65.502 248.433 69.24C248.388 70.4844 248.234 71.7224 247.973 72.9397C247.345 75.4941 245.8 77.7083 244.286 79.8563C243.765 80.7174 242.969 81.3761 242.028 81.7247L236.833 84.2502C236.182 84.5386 235.563 84.8956 234.987 85.3151C234.319 85.8408 233.793 86.5273 233.459 87.3109C232.452 86.7941 231.405 86.3301 230.397 85.8132C230.161 85.6923 229.897 85.5344 229.857 85.2717C229.802 84.9193 230.169 84.6704 230.422 84.4195C230.894 83.9501 231.04 83.2546 231.296 82.6387C232.132 80.6266 234.235 79.3388 234.994 77.296C235.285 76.511 235.374 75.6238 235.891 74.9659C236.187 74.6361 236.52 74.3415 236.882 74.0881C237.683 73.4059 238.419 72.6501 239.08 71.8306C239.377 71.5215 239.62 71.1646 239.799 70.7746C240.026 70.1948 239.958 69.5484 239.97 68.9256C240.008 66.8867 240.927 64.9852 241.489 63.0256C242.019 61.1802 242.24 59.2443 242.935 57.4549C243.63 55.6655 244.991 53.7876 246.844 53.3065Z" fill="black"/>
<path d="M247.519 53.3065C247.403 54.4739 248.529 55.3538 248.974 56.4387C249.156 56.9452 249.259 57.4767 249.281 58.0146C249.594 61.7474 249.351 65.502 249.108 69.24C249.063 70.4844 248.91 71.7224 248.648 72.9397C248.02 75.4941 246.475 77.7083 244.961 79.8563C244.441 80.7174 243.645 81.3761 242.703 81.7247L237.508 84.2502C236.857 84.5386 236.238 84.8956 235.662 85.3151C234.994 85.8408 234.468 86.5273 234.135 87.3109C233.127 86.7941 232.08 86.3301 231.072 85.8132C230.836 85.6923 230.572 85.5344 230.532 85.2717C230.477 84.9193 230.844 84.6704 231.097 84.4195C231.57 83.9501 231.715 83.2546 231.971 82.6387C232.807 80.6266 234.91 79.3388 235.669 77.296C235.96 76.511 236.049 75.6238 236.566 74.9659C236.862 74.6361 237.195 74.3415 237.558 74.0881C238.359 73.4059 239.094 72.6502 239.755 71.8306C240.052 71.5215 240.295 71.1646 240.474 70.7746C240.701 70.1948 240.633 69.5484 240.645 68.9256C240.684 66.8867 241.602 64.9852 242.165 63.0256C242.694 61.1802 242.915 59.2443 243.61 57.4549C244.305 55.6655 245.666 53.7876 247.519 53.3065Z" fill="#D0CDE1"/>
<path d="M242.051 31.0429C240.248 30.8217 238.423 31.2009 236.856 32.1222C237.087 32.1309 237.319 32.1467 237.552 32.175C239.284 32.3848 240.906 33.1349 242.19 34.3195C243.474 35.5041 244.354 37.0633 244.708 38.7771C245.061 40.491 244.869 42.2729 244.159 43.8714C243.449 45.4699 242.257 46.8043 240.75 47.6862C242.897 47.7648 244.99 47.008 246.594 45.5739C248.197 44.1397 249.186 42.1393 249.354 39.9907C249.522 37.842 248.856 35.7113 247.495 34.0438C246.134 32.3763 244.184 31.3011 242.051 31.0429Z" fill="#2F2E41"/>
<path d="M244.613 35.6879C244.815 36.1474 244.925 36.6424 244.936 37.1446C244.948 37.6467 244.86 38.1462 244.679 38.6144C244.639 38.4934 244.594 38.3745 244.542 38.2581C243.513 35.96 240.342 35.0088 237.46 36.1335C235.763 36.796 234.545 38.0313 234.04 39.4044C233.306 37.1828 234.797 34.6304 237.531 33.5632C240.413 32.4386 243.584 33.3898 244.613 35.6879Z" fill="#2F2E41"/>
<g opacity="0.1">
<path d="M244.629 38.4321C244.496 36.8192 243.899 35.2797 242.911 34.0003C241.924 32.7208 240.587 31.7563 239.064 31.2238C238.289 31.4153 237.545 31.7179 236.856 32.1222C237.087 32.1309 237.319 32.1467 237.552 32.175C239.224 32.3778 240.795 33.0844 242.058 34.2014C243.322 35.3185 244.218 36.7936 244.629 38.4321Z" fill="black"/>
<path d="M245.979 32.3348C245.846 30.7219 245.25 29.1824 244.262 27.9029C243.274 26.6235 241.938 25.659 240.415 25.1264C239.639 25.318 238.896 25.6206 238.206 26.0249C238.437 26.0335 238.669 26.0494 238.903 26.0777C240.574 26.2805 242.145 26.987 243.409 28.1041C244.672 29.2211 245.568 30.6962 245.979 32.3348Z" fill="black"/>
<path d="M246.014 23.2276C245.933 22.2542 245.573 21.3251 244.977 20.553C244.381 19.7808 243.575 19.1987 242.655 18.8773C242.187 18.9929 241.739 19.1755 241.323 19.4195C241.462 19.4248 241.602 19.4343 241.743 19.4514C242.752 19.5738 243.7 20.0002 244.462 20.6744C245.225 21.3485 245.766 22.2387 246.014 23.2276Z" fill="black"/>
<path d="M249.128 37.3C249.29 39.3038 248.727 41.299 247.542 42.9202C246.358 44.5414 244.63 45.68 242.677 46.1276C242.115 46.74 241.466 47.2653 240.75 47.6862C242.041 47.7336 243.325 47.4788 244.501 46.9421C245.677 46.4053 246.712 45.6013 247.525 44.5937C248.338 43.5861 248.906 42.4025 249.184 41.1366C249.462 39.8707 249.443 38.5572 249.128 37.3Z" fill="black"/>
</g>
<path d="M223.227 90.8374L222.151 58.1715" stroke="#6C63FF" stroke-width="2" stroke-miterlimit="10"/>
<path d="M222.151 62.7935C224.694 62.7935 226.757 60.7242 226.757 58.1715C226.757 55.6189 224.694 53.5496 222.151 53.5496C219.607 53.5496 217.544 55.6189 217.544 58.1715C217.544 60.7242 219.607 62.7935 222.151 62.7935Z" fill="#A0D468"/>
<path d="M222.814 78.3042C222.814 78.3042 221.689 64.1326 208.261 66.2299L222.814 78.3042Z" fill="#A0D468"/>
</g>
<defs>
<linearGradient id="paint0_linear_162_405" x1="243.184" y1="45.429" x2="243.184" y2="41.8483" gradientUnits="userSpaceOnUse">
<stop stop-color="#808080" stop-opacity="0.25"/>
<stop offset="0.53514" stop-color="#808080" stop-opacity="0.12"/>
<stop offset="1" stop-color="#808080" stop-opacity="0.1"/>
</linearGradient>
<clipPath id="clip0_162_405">
<rect width="273" height="192" fill="white"/>
</clipPath>
</defs>
</svg>
