<svg width="177" height="184" viewBox="0 0 177 184" fill="none" xmlns="http://www.w3.org/2000/svg">
<path d="M107.999 182.991C107.999 183.262 107.778 183.484 107.507 183.484H0.492092C0.220939 183.484 0 183.262 0 182.991C0 182.719 0.220939 182.497 0.492092 182.497H107.507C107.778 182.497 107.999 182.719 107.999 182.991Z" fill="#3F3D58"/>
<path d="M59.8344 30.5264L69.7013 33.7766V19.548H60.7482L59.8344 30.5264Z" fill="#F6AAAE"/>
<path d="M68.4761 23.4875C73.906 23.4875 78.3079 19.077 78.3079 13.6362C78.3079 8.19547 73.906 3.78488 68.4761 3.78488C63.0461 3.78488 58.6443 8.19547 58.6443 13.6362C58.6443 19.077 63.0461 23.4875 68.4761 23.4875Z" fill="#F6AAAE"/>
<path d="M65.9755 14.406L67.3312 16.0563L69.7817 11.7595C69.7817 11.7595 72.91 11.9205 72.91 9.59607C72.91 7.2716 75.7822 7.2062 75.7822 7.2062C75.7822 7.2062 79.8444 0.0969351 71.4287 1.96859C71.4287 1.96859 65.5888 -2.04138 62.6865 1.38495C62.6865 1.38495 53.7837 5.87792 56.3295 13.7016L60.5625 21.7618L61.5216 19.9354C61.5216 19.9354 60.9391 12.2727 65.9755 14.406Z" fill="#2F2E43"/>
<path d="M65.0616 165.356H57.1178V176.646H65.0616V165.356Z" fill="#F6AAAE"/>
<path d="M64.1879 183.116C62.8271 183.242 56.0332 183.775 55.6917 182.216C55.3804 180.782 55.8374 179.282 55.9026 179.081C56.5554 172.571 56.7964 172.495 56.942 172.45C57.173 172.385 57.8509 172.702 58.9456 173.411L59.0159 173.456L59.0309 173.537C59.051 173.637 59.5381 176.027 61.8379 175.665C63.4146 175.413 63.9267 175.066 64.0924 174.895C63.9569 174.835 63.7912 174.729 63.6757 174.543C63.5049 174.276 63.4748 173.934 63.5853 173.527C63.8815 172.445 64.7703 170.845 64.8055 170.779L64.9059 170.598L73.9343 176.701L79.508 178.296C79.9298 178.417 80.2662 178.719 80.4369 179.121C80.6729 179.685 80.5273 180.339 80.0754 180.747C79.0611 181.657 77.0525 183.222 74.9386 183.413C74.3762 183.463 73.633 183.484 72.7995 183.484C69.3096 183.484 64.223 183.121 64.1828 183.116L64.1879 183.116Z" fill="#2F2E43"/>
<path d="M40.2847 148.4L33.1023 157.1L39.2231 162.173L46.4055 153.474L40.2847 148.4Z" fill="#F6AAAE"/>
<path d="M34.4414 166.609C33.3167 165.834 27.7379 161.909 28.466 160.49C29.1389 159.187 30.4445 158.327 30.6252 158.211C35.27 153.613 35.506 153.708 35.6466 153.769C35.8675 153.864 36.1838 154.543 36.5805 155.786L36.6056 155.862L36.5655 155.932C36.5153 156.023 35.3704 158.176 37.3739 159.363C38.7498 160.179 39.3674 160.234 39.5984 160.209C39.5331 160.078 39.4728 159.887 39.4979 159.67C39.5331 159.358 39.7289 159.072 40.0804 158.83C40.9993 158.186 42.6965 157.522 42.7719 157.492L42.9627 157.416L46.0357 167.887L49.3147 172.676C49.5607 173.039 49.631 173.486 49.5055 173.909C49.3297 174.493 48.8025 174.905 48.1899 174.93C46.8291 174.986 44.2883 174.905 42.5359 173.703C42.0739 173.386 41.4864 172.928 40.8437 172.395C38.1572 170.166 34.4665 166.639 34.4364 166.609L34.4414 166.609Z" fill="#2F2E43"/>
<path d="M78.2025 78.2786H50.9567L57.0124 168.52H66.096L78.2075 78.2787L78.2025 78.2786Z" fill="#2F2E43"/>
<path d="M72.6538 83.2496L78.2024 78.2786L75.4256 127.908L44.3937 157.482L36.6608 151.077L54.7377 127.571L72.6538 83.2496Z" fill="#2F2E43"/>
<path d="M72.6538 25.1932L59.1966 23.0045L55.0189 30.3251C49.7063 39.6331 47.5421 50.4102 48.8426 61.0514L50.9566 78.2837H78.2024L72.6538 25.1982L72.6538 25.1932Z" fill="#DADBDC"/>
<path d="M61.7274 94.5248C62.2848 97.3071 61.2454 99.8479 59.4126 100.2C57.5748 100.547 55.6365 98.575 55.0792 95.7877C54.8432 94.6757 54.8833 93.5286 55.1997 92.4368L52.9903 80.6082L58.7648 79.7075L60.3265 91.4657C61.0395 92.3664 61.5216 93.4129 61.7274 94.5298V94.5248Z" fill="#F6AAAE"/>
<path d="M54.7026 91.3198L46.2215 65.0664V65.0262L49.4251 37.9929C49.9172 33.8521 53.4221 30.7327 57.5798 30.7327C60.1256 30.7327 62.4856 31.8848 64.0523 33.8974C65.619 35.9099 66.1663 38.4809 65.5487 40.9613L59.8896 63.6375L61.2403 89.3727L54.6975 91.3198L54.7026 91.3198Z" fill="#DADBDC"/>
<path d="M103.224 31.6357C105.579 44.2392 117.685 52.5459 130.269 50.1812C134.075 49.4668 137.489 47.8567 140.332 45.6077L168.953 76.5403C170.706 78.4321 173.693 78.4271 175.441 76.5252C177.073 74.7492 176.982 71.992 175.235 70.3266L144.655 41.1248C148.331 36.1237 150.008 29.6685 148.777 23.0825C146.422 10.479 134.316 2.17233 121.733 4.53706C109.149 6.90178 100.864 19.0272 103.224 31.6357ZM108.165 30.71C106.322 20.8385 112.81 11.3394 122.661 9.4929C132.513 7.6464 141.994 14.1469 143.836 24.0183C145.679 33.8898 139.192 43.3889 129.34 45.2354C119.488 47.0819 110.008 40.5814 108.165 30.71Z" fill="#2C8653"/>
</svg>
